<svg viewBox="0 0 22 22" xmlns="http://www.w3.org/2000/svg" xmlns:xlink="http://www.w3.org/1999/xlink" width="22.000000" height="22.000000" fill="none" customFrame="#000000">
	<g id="Group 43">
		<path id="Vector" d="M16 1C18.7614 1 21 3.23858 21 6L21 16C21 18.7614 18.7614 21 16 21L6 21C3.23858 21 1 18.7614 1 16L1 6C1 3.23858 3.23858 1 6 1L16 1Z" stroke="rgb(221,217,214)" stroke-linecap="round" stroke-linejoin="round" stroke-width="2.000000" />
		<path id="Vector" d="M14.5935 12.7993C14.206 13.5461 13.5929 14.1517 12.8413 14.53C12.0898 14.9082 11.2382 15.0399 10.4075 14.9062C9.57683 14.7726 8.80947 14.3804 8.21455 13.7855C7.61962 13.1905 7.22744 12.4232 7.09377 11.5925C6.96011 10.7619 7.09177 9.9102 7.47003 9.15868C7.84829 8.40716 8.45389 7.79404 9.20069 7.40654C9.94749 7.01904 10.7975 6.87689 11.6297 7.0003C12.4786 7.12619 13.2646 7.52176 13.8714 8.12861C14.4782 8.73545 14.8738 9.52138 14.9997 10.3703C15.1231 11.2025 14.981 12.0525 14.5935 12.7993Z" fill-rule="nonzero" stroke="rgb(221,217,214)" stroke-linecap="round" stroke-linejoin="round" stroke-width="2.000000" />
		<path id="Vector" d="M16.5 5.5L16.51 5.5" stroke="rgb(221,217,214)" stroke-linecap="round" stroke-linejoin="round" stroke-width="2.000000" />
	</g>
</svg>
