<svg viewBox="0 0 22 21" xmlns="http://www.w3.org/2000/svg" xmlns:xlink="http://www.w3.org/1999/xlink" width="22.000000" height="21.000000" fill="none" customFrame="#000000">
	<g id="Group 55">
		<path id="Vector" d="M19.2426 8.75736C20.3679 9.88258 21 11.4087 21 13L21 20L17 20L17 13C17 12.4696 16.7893 11.9609 16.4142 11.5858C16.0391 11.2107 15.5304 11 15 11C14.4696 11 13.9609 11.2107 13.5858 11.5858C13.2107 11.9609 13 12.4696 13 13L13 20L9 20L9 13C9 11.4087 9.63214 9.88258 10.7574 8.75736C11.8826 7.63214 13.4087 7 15 7C16.5913 7 18.1174 7.63214 19.2426 8.75736Z" fill-rule="nonzero" stroke="rgb(221,217,214)" stroke-linecap="round" stroke-linejoin="round" stroke-width="2.000000" />
		<path id="Vector" d="M5 8L5 20L1 20L1 8L5 8Z" stroke="rgb(221,217,214)" stroke-linecap="round" stroke-linejoin="round" stroke-width="2.000000" />
		<path id="Vector" d="M3 5C1.89543 5 1 4.10457 1 3C1 1.89543 1.89543 1 3 1C4.10457 1 5 1.89543 5 3C5 4.10457 4.10457 5 3 5Z" stroke="rgb(221,217,214)" stroke-linecap="round" stroke-linejoin="round" stroke-width="2.000000" />
	</g>
</svg>
