<svg viewBox="0 0 24.0182 19.9496" xmlns="http://www.w3.org/2000/svg" xmlns:xlink="http://www.w3.org/1999/xlink" width="24.018219" height="19.949615" fill="none" customFrame="#000000">
	<g id="Group 56">
		<path id="Vector" d="M19.8603 2.54573C19.258 1.85324 18.4576 1.36242 17.5673 1.13966C16.677 0.916892 15.7398 0.972928 14.8824 1.30019C14.0249 1.62744 13.2887 2.21013 12.7733 2.96945C12.2578 3.72876 11.988 4.62807 12.0003 5.54573L12.0003 6.54573C10.2429 6.5913 8.50155 6.20154 6.93128 5.41118C5.36102 4.62081 4.01059 3.45437 3.00027 2.01573C3.00027 2.01573 -0.999725 11.0157 8.00027 15.0157C5.9408 16.4137 3.48743 17.1147 1.00027 17.0157C10.0003 22.0157 21.0003 17.0157 21.0003 5.51573C20.9994 5.23719 20.9726 4.95933 20.9203 4.68573C21.9409 3.67923 22.6611 2.40844 23.0003 1.01573C22.0427 1.69121 20.9824 2.20784 19.8603 2.54573Z" fill-rule="nonzero" stroke="rgb(221,217,214)" stroke-linecap="round" stroke-linejoin="round" stroke-width="2.000000" />
	</g>
</svg>
