<svg viewBox="0 0 20 22" xmlns="http://www.w3.org/2000/svg" xmlns:xlink="http://www.w3.org/1999/xlink" width="20.000000" height="22.000000" fill="none" customFrame="#000000">
	<g id="Group 29">
		<path id="Vector" d="M1 19C1 19.5304 1.21071 20.0391 1.58579 20.4142C1.96086 20.7893 2.46957 21 3 21L17 21C17.5304 21 18.0391 20.7893 18.4142 20.4142C18.7893 20.0391 19 19.5304 19 19L19 7C19 5.70178 18.5789 4.43858 17.8 3.4C16.6669 1.88917 14.8885 1 13 1L7 1C5.11146 1 3.33313 1.88917 2.2 3.4C1.42107 4.43858 1 5.70178 1 7L1 19Z" fill-rule="nonzero" stroke="rgb(117,79,35)" stroke-linecap="round" stroke-linejoin="round" stroke-width="2.000000" />
		<path id="Vector" d="M1 5L19 5" stroke="rgb(117,79,35)" stroke-linecap="round" stroke-linejoin="round" stroke-width="2.000000" />
		<path id="Vector" d="M14 9C14 10.0609 13.5786 11.0783 12.8284 11.8284C12.0783 12.5786 11.0609 13 10 13C8.93913 13 7.92172 12.5786 7.17157 11.8284C6.42143 11.0783 6 10.0609 6 9" fill-rule="nonzero" stroke="rgb(117,79,35)" stroke-linecap="round" stroke-linejoin="round" stroke-width="2.000000" />
	</g>
</svg>
