<svg viewBox="0 0 120 48" xmlns="http://www.w3.org/2000/svg" xmlns:xlink="http://www.w3.org/1999/xlink" width="120.000000" height="48.000000" fill="none" customFrame="#000000">
	<path id="Sehlvet" d="M9.87891 13.0723Q11.8916 13.0723 12.9727 13.5117Q14.0537 13.9424 14.8447 14.4521Q15.2754 14.6982 15.5479 14.8301Q15.8203 14.9531 16.0664 14.9531Q16.4268 14.9531 16.585 14.5576Q16.752 14.1621 16.8662 13.3711L17.6924 13.3711Q17.6572 14.0391 17.5957 14.9531Q17.543 15.8584 17.5254 17.3525Q17.5078 18.8467 17.5078 21.29L16.6816 21.29Q16.5586 19.4619 15.8555 17.7656Q15.1611 16.0605 13.8779 14.9707Q12.5947 13.8721 10.6348 13.8721Q8.85938 13.8721 7.69043 14.9092Q6.53027 15.9463 6.53027 17.7129Q6.53027 19.2246 7.28613 20.2617Q8.04199 21.2988 9.42188 22.248Q10.8105 23.1973 12.6914 24.4365Q14.4668 25.5703 15.8643 26.7041Q17.2617 27.8291 18.0879 29.209Q18.9141 30.5889 18.9141 32.5488Q18.9141 34.8955 17.7451 36.4424Q16.585 37.9805 14.6514 38.7451Q12.7266 39.501 10.415 39.501Q8.29688 39.501 7.04004 39.0703Q5.79199 38.6396 4.91309 38.1738Q4.12207 37.6641 3.68262 37.6641Q3.33105 37.6641 3.16406 38.0684Q3.00586 38.4639 2.8916 39.2549L2.06543 39.2549Q2.13574 38.4199 2.15332 37.3125Q2.1709 36.1963 2.18848 34.4121Q2.21484 32.6279 2.21484 29.8945L3.04102 29.8945Q3.18164 32.1973 3.84961 34.2012Q4.51758 36.1963 5.89746 37.418Q7.28613 38.6396 9.58887 38.6396Q10.8369 38.6396 11.8564 38.1826Q12.876 37.7256 13.5 36.7764Q14.124 35.8184 14.124 34.3594Q14.124 32.8652 13.4297 31.7578Q12.7354 30.6416 11.5137 29.6748Q10.292 28.708 8.65723 27.6973Q6.96094 26.6074 5.48438 25.5Q4.00781 24.3926 3.12891 22.9688Q2.25 21.5361 2.25 19.5322Q2.25 17.3086 3.32227 15.8848Q4.40332 14.4521 6.15234 13.7666Q7.90137 13.0723 9.87891 13.0723ZM30.5035 19.9014Q33.6764 19.9014 35.4694 21.7998Q37.2711 23.6895 37.2711 27.873L25.1334 27.873L25.0807 27.1963L33.0875 27.1963Q33.149 25.4297 32.859 23.9355Q32.569 22.4414 31.9449 21.5449Q31.3297 20.6396 30.319 20.6396Q28.9391 20.6396 27.9283 22.248Q26.9176 23.8477 26.6891 27.4951L26.8121 27.6973Q26.7594 28.1631 26.733 28.6992Q26.7154 29.2266 26.7154 29.7803Q26.7154 32.25 27.4361 33.876Q28.1656 35.4932 29.3082 36.2666Q30.4596 37.0312 31.6725 37.0312Q32.525 37.0312 33.3863 36.7676Q34.2477 36.5039 35.0738 35.8184Q35.9088 35.1328 36.5944 33.9023L37.2711 34.1572Q36.858 35.4492 35.9352 36.6885Q35.0123 37.9277 33.5885 38.7188Q32.1647 39.501 30.2223 39.501Q27.7438 39.501 25.8717 38.4199Q24.0084 37.3301 22.9625 35.2031Q21.9254 33.0762 21.9254 29.9824Q21.9254 26.6953 23.0152 24.4541Q24.1139 22.2129 26.0563 21.0615Q27.9986 19.9014 30.5035 19.9014ZM46.3368 10.8223L46.3368 23.5664Q47.2509 21.5273 48.8329 20.7188Q50.4238 19.9014 52.3046 19.9014Q53.7812 19.9014 54.7128 20.2793Q55.6445 20.6572 56.2158 21.2988Q56.8398 21.9844 57.1122 23.0654Q57.3935 24.1465 57.3935 25.9834L57.3935 35.6514Q57.3935 37.1631 57.9472 37.708Q58.5097 38.2441 59.8368 38.2441L59.8368 39Q59.1865 38.9648 57.8417 38.9121Q56.5058 38.8594 55.2314 38.8594Q53.913 38.8594 52.6562 38.9121Q51.3993 38.9648 50.7665 39L50.7665 38.2441Q51.9179 38.2441 52.3837 37.708Q52.8583 37.1631 52.8583 35.6514L52.8583 24.7266Q52.8583 23.7598 52.6738 22.9951Q52.498 22.2305 51.9618 21.791Q51.4345 21.3428 50.3974 21.3428Q49.2548 21.3428 48.332 21.9668Q47.4179 22.5908 46.873 23.7158Q46.3368 24.8408 46.3368 26.2822L46.3368 35.6514Q46.3368 37.1631 46.8115 37.708Q47.2861 38.2441 48.4286 38.2441L48.4286 39Q47.8046 38.9648 46.5917 38.9121Q45.3788 38.8594 44.1044 38.8594Q42.7861 38.8594 41.4062 38.9121Q40.0351 38.9648 39.3583 39L39.3583 38.2441Q40.6855 38.2441 41.2392 37.708Q41.8017 37.1631 41.8017 35.6514L41.8017 15.1465Q41.8017 13.5293 41.2831 12.7559Q40.7646 11.9824 39.3583 11.9824L39.3583 11.2266Q40.5097 11.332 41.5908 11.332Q42.9355 11.332 44.1308 11.209Q45.3349 11.0771 46.3368 10.8223ZM68.0528 10.8047L68.0528 35.6514Q68.0528 37.1631 68.6065 37.708Q69.169 38.2441 70.5049 38.2441L70.5049 39Q69.8546 38.9648 68.5274 38.9121Q67.209 38.8594 65.8467 38.8594Q64.5108 38.8594 63.1309 38.9121Q61.751 38.9648 61.0743 39L61.0743 38.2441Q62.4014 38.2441 62.9551 37.708Q63.5176 37.1631 63.5176 35.6514L63.5176 15.1201Q63.5176 13.5029 62.9991 12.7295Q62.4893 11.9561 61.0743 11.9561L61.0743 11.2002Q62.2256 11.3057 63.3067 11.3057Q64.6514 11.3057 65.8467 11.1826Q67.0508 11.0596 68.0528 10.8047ZM89.244 20.4023L89.244 21.1406Q88.5584 21.2812 87.9608 21.9053Q87.3631 22.5205 86.8182 24.041L81.3338 39.1055Q80.9032 39.0791 80.4637 39.0791Q80.0243 39.0791 79.5672 39.1055L73.0897 23.1709Q72.5272 21.7822 71.9559 21.4746Q71.3934 21.1582 70.9979 21.1582L70.9979 20.4023Q72.0086 20.4639 73.0897 20.5254Q74.1708 20.5781 75.4627 20.5781Q76.579 20.5781 77.8182 20.5254Q79.0663 20.4727 80.1473 20.4023L80.1473 21.1582Q79.3475 21.1582 78.7147 21.2549Q78.0819 21.3516 77.8709 21.8086Q77.66 22.2568 78.0379 23.3906L82.3534 34.5615L82.037 34.957L85.3065 26.0889Q85.9217 24.4014 85.8163 23.3467Q85.7108 22.292 85.0428 21.7559Q84.3749 21.2109 83.1708 21.1406L83.1708 20.4023Q83.7596 20.4375 84.3221 20.4639Q84.8934 20.4902 85.4471 20.5078Q86.0008 20.5254 86.493 20.5254Q87.2489 20.5254 87.9959 20.4902Q88.743 20.4551 89.244 20.4023ZM98.8315 19.9014Q102.004 19.9014 103.797 21.7998Q105.599 23.6895 105.599 27.873L93.4614 27.873L93.4087 27.1963L101.416 27.1963Q101.477 25.4297 101.187 23.9355Q100.897 22.4414 100.273 21.5449Q99.6577 20.6396 98.647 20.6396Q97.2671 20.6396 96.2563 22.248Q95.2456 23.8477 95.0171 27.4951L95.1401 27.6973Q95.0874 28.1631 95.061 28.6992Q95.0434 29.2266 95.0434 29.7803Q95.0434 32.25 95.7641 33.876Q96.4936 35.4932 97.6362 36.2666Q98.7876 37.0312 100 37.0312Q100.853 37.0312 101.714 36.7676Q102.576 36.5039 103.402 35.8184Q104.237 35.1328 104.922 33.9023L105.599 34.1572Q105.186 35.4492 104.263 36.6885Q103.34 37.9277 101.916 38.7188Q100.493 39.501 98.5503 39.501Q96.0718 39.501 94.1997 38.4199Q92.3364 37.3301 91.2905 35.2031Q90.2534 33.0762 90.2534 29.9824Q90.2534 26.6953 91.3432 24.4541Q92.4419 22.2129 94.3843 21.0615Q96.3266 19.9014 98.8315 19.9014ZM114.726 14.4873L114.726 20.4199L119.332 20.4199L119.332 21.1406L114.726 21.1406L114.726 35.4756Q114.726 36.7676 115.192 37.3037Q115.658 37.8311 116.537 37.8311Q117.346 37.8311 118.031 37.2158Q118.725 36.5918 119.262 35.1064L119.912 35.3877Q119.393 37.1543 118.26 38.332Q117.126 39.501 115.06 39.501Q113.847 39.501 112.986 39.1934Q112.134 38.8945 111.518 38.3057Q110.727 37.4883 110.455 36.3281Q110.191 35.168 110.191 33.2783L110.191 21.1406L107.018 21.1406L107.018 20.4199L110.191 20.4199L110.191 15.4189Q111.492 15.4014 112.617 15.1904Q113.742 14.9707 114.726 14.4873Z" fill="rgb(47,47,47)" fill-rule="nonzero" />
</svg>
